<svg width="24" height="24" viewBox="0 0 24 24" fill="none" xmlns="http://www.w3.org/2000/svg">
<path d="M15.3333 22L19.7778 22C21.0051 22 22 21.0051 22 19.7778L22 15.3333C22 14.106 21.0051 13.1111 19.7778 13.1111L15.3333 13.1111C14.106 13.1111 13.1111 14.106 13.1111 15.3333L13.1111 19.7778C13.1111 21.0051 14.106 22 15.3333 22Z" fill="#AEC8D4"/>
<path d="M15.3333 10.8889L19.7778 10.8889C21.0051 10.8889 22 9.89399 22 8.6667L22 4.22226C22 2.99496 21.0051 2.00004 19.7778 2.00004L15.3333 2.00004C14.106 2.00004 13.1111 2.99496 13.1111 4.22226L13.1111 8.6667C13.1111 9.894 14.106 10.8889 15.3333 10.8889Z" fill="#AEC8D4"/>
<path d="M4.22226 10.8889L8.6667 10.8889C9.89399 10.8889 10.8889 9.89399 10.8889 8.6667L10.8889 4.22226C10.8889 2.99496 9.89399 2.00004 8.6667 2.00004L4.22226 2.00004C2.99496 2.00004 2.00004 2.99496 2.00004 4.22226L2.00004 8.6667C2.00004 9.894 2.99496 10.8889 4.22226 10.8889Z" fill="#AEC8D4"/>
<path d="M6.44448 13.1111C3.98988 13.1111 2.00004 15.101 2.00004 17.5556C2.00004 20.0102 3.98988 22 6.44448 22C8.89907 22 10.8889 20.0102 10.8889 17.5556C10.8889 15.101 8.89907 13.1111 6.44448 13.1111Z" fill="#AEC8D4"/>
</svg>
