<svg width="24" height="24" viewBox="0 0 24 24" fill="none" xmlns="http://www.w3.org/2000/svg">
<path d="M22.2899 10.7239L14.0037 2.88456C13.7168 2.60417 13.3759 2.38171 13.0007 2.22992C12.6254 2.07813 12.2231 2 11.8168 2C11.4105 2 11.0081 2.07813 10.6329 2.22992C10.2576 2.38171 9.91673 2.60417 9.62981 2.88456L1.34364 10.7239C1.23844 10.8195 1.1539 10.9345 1.09494 11.0624C1.03598 11.1903 1.0038 11.3283 1.00032 11.4684C0.996834 11.6086 1.02213 11.748 1.07467 11.8784C1.12721 12.0089 1.20593 12.1279 1.30627 12.2283C1.4066 12.3287 1.52652 12.4086 1.65896 12.4632C1.79139 12.5179 1.93368 12.5462 2.07749 12.5465C2.22131 12.5468 2.36373 12.5192 2.49643 12.4651C2.62912 12.4111 2.74943 12.3317 2.85024 12.2318L3.17692 11.9212V19.8948C3.17692 20.4531 3.40448 20.9886 3.80956 21.3834C4.21463 21.7782 4.76402 22 5.33688 22H7.49684C8.0697 22 8.61909 21.7782 9.02416 21.3834C9.42923 20.9886 9.6568 20.4531 9.6568 19.8948V17.7896C9.6568 17.5104 9.7706 17.2426 9.97313 17.0452C10.1757 16.8478 10.4503 16.7369 10.7368 16.7369H12.8967C13.1832 16.7369 13.4578 16.8478 13.6604 17.0452C13.8629 17.2426 13.9767 17.5104 13.9767 17.7896V19.8948C13.9767 20.4531 14.2043 20.9886 14.6094 21.3834C15.0144 21.7782 15.5638 22 16.1367 22H18.2966C18.8695 22 19.4189 21.7782 19.824 21.3834C20.229 20.9886 20.4566 20.4531 20.4566 19.8948V11.9212L20.7833 12.2318C20.8841 12.3317 21.0044 12.4111 21.1371 12.4651C21.2698 12.5192 21.4122 12.5468 21.556 12.5465C21.6998 12.5462 21.8421 12.5179 21.9746 12.4632C22.107 12.4086 22.2269 12.3287 22.3272 12.2283C22.4276 12.1279 22.5063 12.0089 22.5588 11.8784C22.6114 11.748 22.6367 11.6086 22.6332 11.4684C22.6297 11.3283 22.5975 11.1903 22.5386 11.0624C22.4796 10.9345 22.3951 10.8195 22.2899 10.7239Z" fill="#247BA0"/>
</svg>
